<svg width="282" height="150" viewBox="0 0 282 150" fill="none" xmlns="http://www.w3.org/2000/svg">
<circle cx="74" cy="74" r="74" fill="#11E454"/>
<ellipse cx="73.5421" cy="87.7285" rx="60.1708" ry="60.2715" fill="#CCF5CF"/>
<ellipse cx="73.8764" cy="98.7784" rx="49.1395" ry="49.2217" fill="#45D94F"/>
<ellipse cx="73.8763" cy="110.498" rx="37.7739" ry="37.5023" fill="#99EA9F"/>
<ellipse cx="73.6697" cy="122.552" rx="24.1161" ry="24.1086" fill="#14CC4E"/>
<path d="M172.205 81.31C172.205 85.38 171.527 88.9367 170.17 91.98C168.85 94.9867 166.815 97.3333 164.065 99.02C161.315 100.707 157.868 101.55 153.725 101.55C149.545 101.55 146.08 100.707 143.33 99.02C140.617 97.3333 138.582 94.9683 137.225 91.925C135.905 88.8817 135.245 85.325 135.245 81.255C135.245 77.2217 135.905 73.7017 137.225 70.695C138.582 67.6517 140.617 65.305 143.33 63.655C146.08 61.9683 149.563 61.125 153.78 61.125C157.923 61.125 161.352 61.9683 164.065 63.655C166.815 65.305 168.85 67.6517 170.17 70.695C171.527 73.7017 172.205 77.24 172.205 81.31ZM142.67 81.31C142.67 85.7467 143.55 89.23 145.31 91.76C147.07 94.29 149.875 95.555 153.725 95.555C157.612 95.555 160.417 94.29 162.14 91.76C163.9 89.23 164.78 85.7467 164.78 81.31C164.78 76.8733 163.918 73.39 162.195 70.86C160.472 68.33 157.667 67.065 153.78 67.065C149.93 67.065 147.107 68.33 145.31 70.86C143.55 73.39 142.67 76.8733 142.67 81.31ZM215.327 101H206.582L187.992 70.2H187.772C187.882 71.85 187.974 73.6283 188.047 75.535C188.157 77.405 188.23 79.2933 188.267 81.2V101H181.942V61.73H190.632L209.167 92.31H209.332C209.259 90.8433 209.185 89.1567 209.112 87.25C209.039 85.3433 208.984 83.4917 208.947 81.695V61.73H215.327V101ZM159.94 137.275C159.94 140.758 158.675 143.508 156.145 145.525C153.615 147.542 150.113 148.55 145.64 148.55C141.313 148.55 137.647 147.817 134.64 146.35V139.75C136.29 140.483 138.105 141.162 140.085 141.785C142.065 142.372 144.082 142.665 146.135 142.665C148.482 142.665 150.205 142.207 151.305 141.29C152.405 140.373 152.955 139.163 152.955 137.66C152.955 136.01 152.258 134.708 150.865 133.755C149.472 132.802 147.437 131.757 144.76 130.62C143.147 129.923 141.607 129.098 140.14 128.145C138.673 127.192 137.463 125.982 136.51 124.515C135.557 123.048 135.08 121.178 135.08 118.905C135.08 115.532 136.253 112.91 138.6 111.04C140.983 109.133 144.155 108.18 148.115 108.18C150.205 108.18 152.148 108.4 153.945 108.84C155.778 109.28 157.612 109.903 159.445 110.71L157.19 116.375C155.54 115.678 153.963 115.128 152.46 114.725C150.993 114.322 149.472 114.12 147.895 114.12C145.988 114.12 144.54 114.56 143.55 115.44C142.56 116.283 142.065 117.383 142.065 118.74C142.065 119.84 142.34 120.757 142.89 121.49C143.44 122.223 144.283 122.902 145.42 123.525C146.593 124.148 148.097 124.863 149.93 125.67C152.02 126.587 153.817 127.54 155.32 128.53C156.823 129.52 157.96 130.712 158.73 132.105C159.537 133.498 159.94 135.222 159.94 137.275ZM180.444 108.73C185.541 108.73 189.244 109.793 191.554 111.92C193.901 114.047 195.074 116.98 195.074 120.72C195.074 122.957 194.598 125.065 193.644 127.045C192.691 128.988 191.078 130.565 188.804 131.775C186.568 132.948 183.524 133.535 179.674 133.535H175.769V148H168.729V108.73H180.444ZM180.004 114.56H175.769V127.705H178.959C181.819 127.705 184.019 127.192 185.559 126.165C187.136 125.102 187.924 123.378 187.924 120.995C187.924 118.832 187.283 117.218 185.999 116.155C184.716 115.092 182.718 114.56 180.004 114.56ZM239.247 128.31C239.247 132.38 238.569 135.937 237.212 138.98C235.892 141.987 233.857 144.333 231.107 146.02C228.357 147.707 224.91 148.55 220.767 148.55C216.587 148.55 213.122 147.707 210.372 146.02C207.659 144.333 205.624 141.968 204.267 138.925C202.947 135.882 202.287 132.325 202.287 128.255C202.287 124.222 202.947 120.702 204.267 117.695C205.624 114.652 207.659 112.305 210.372 110.655C213.122 108.968 216.605 108.125 220.822 108.125C224.965 108.125 228.394 108.968 231.107 110.655C233.857 112.305 235.892 114.652 237.212 117.695C238.569 120.702 239.247 124.24 239.247 128.31ZM209.712 128.31C209.712 132.747 210.592 136.23 212.352 138.76C214.112 141.29 216.917 142.555 220.767 142.555C224.654 142.555 227.459 141.29 229.182 138.76C230.942 136.23 231.822 132.747 231.822 128.31C231.822 123.873 230.96 120.39 229.237 117.86C227.514 115.33 224.709 114.065 220.822 114.065C216.972 114.065 214.149 115.33 212.352 117.86C210.592 120.39 209.712 123.873 209.712 128.31ZM261.399 148H254.359V114.67H243.084V108.73H272.674V114.67H261.399V148Z" fill="#EBEBEB"/>
</svg>
